<svg width="32" height="32" viewBox="0 0 32 32" fill="none" xmlns="http://www.w3.org/2000/svg">
<mask id="mask0_17_6643" style="mask-type:alpha" maskUnits="userSpaceOnUse" x="0" y="0" width="32" height="32">
<rect width="32" height="32" fill="#D9D9D9"/>
</mask>
<g mask="url(#mask0_17_6643)">
<path d="M14.6667 25.3333H17.3333V19.7667L19.4667 21.9L21.3333 20L16 14.6667L10.6667 20L12.5667 21.8667L14.6667 19.7667V25.3333ZM8 29.3333C7.26667 29.3333 6.63889 29.0722 6.11667 28.55C5.59444 28.0278 5.33333 27.4 5.33333 26.6667V5.33332C5.33333 4.59999 5.59444 3.97221 6.11667 3.44999C6.63889 2.92777 7.26667 2.66666 8 2.66666H18.6667L26.6667 10.6667V26.6667C26.6667 27.4 26.4056 28.0278 25.8833 28.55C25.3611 29.0722 24.7333 29.3333 24 29.3333H8ZM17.3333 12H24L17.3333 5.33332V12Z" fill="#B1ACFF"/>
</g>
</svg>
